# xmcd
#
# Track frame offsets: 
#        150
#        9487
#        20475
#        30310
#        41622
#        59020
#        71785
#        88252
#        101325
#        111015
#        123405
#        139180
#        153675
#        168680
#        182432
#        195092
#        210332
#        229870
#
# Disc length: 3242 seconds
#
# Revision: 5
# Processed by: cddbd v1.5.2PL0 Copyright (c) Steve Scherf et al.
# Submitted via: ExactAudioCopy v0.99pb5
#
DISCID=ef0ca812
DTITLE=Various Artist - The History Of Country Music - The Seventies - CD 1
DYEAR=1993
DGENRE=Country
TTITLE0=Charley Pride - Kiss an angel good mornin'
TTITLE1=Conway Twitty - Hello darlin'
TTITLE2=Mel Tillis - I ain't never
TTITLE3=Donna Fargo - The happiest girl in the whole U.S.A.
TTITLE4=Hank Williams Jr. - All for the love of sunshine
TTITLE5=Jerry Lee Lewis -  Chantilly lace
TTITLE6=Cal Smith - Country bumpkin
TTITLE7=Freddy Fender - Wasted days and wasted nights
TTITLE8=Johnny Rodriguez - Riding my thumb to Mexico
TTITLE9=Tom T. Hall - The year that Clayton Delaney died
TTITLE10=Ronnie Milsap - Only one love in my life
TTITLE11=Charlie Rich and Janie Fricke - On my knees
TTITLE12=Waylon Jennings - Luckenbach, Texas (back to the basics of lo
TTITLE12=ve)
TTITLE13=Tanya Tucker -  Lizzie and the rainman
TTITLE14=Don Williams - She never knew me
TTITLE15=B.J. Thomas - (Hey won't you play) another somebody done some
TTITLE15=body wrong song
TTITLE16=Willie Nelson - Georgia on my mind
TTITLE17=Dolly Parton - Here you come again
EXTD=YEAR: 2002  ID3G:   2
EXTT0=
EXTT1=
EXTT2=
EXTT3=
EXTT4=
EXTT5=
EXTT6=
EXTT7=
EXTT8=
EXTT9=
EXTT10=
EXTT11=
EXTT12=
EXTT13=
EXTT14=
EXTT15=
EXTT16=
EXTT17=
PLAYORDER=
